<?xml version="1.0" standalone="no"?>
<!DOCTYPE svg PUBLIC "-//W3C//DTD SVG 20010904//EN"
 "http://www.w3.org/TR/2001/REC-SVG-20010904/DTD/svg10.dtd">
<svg version="1.0" xmlns="http://www.w3.org/2000/svg"
 width="200.000000pt" height="200.000000pt" viewBox="0 0 200.000000 200.000000"
 preserveAspectRatio="xMidYMid meet">

<g transform="translate(0.000000,200.000000) scale(0.100000,-0.100000)"
fill="#000000" stroke="none">
<path d="M1091 1974 c-238 -64 -308 -354 -85 -354 39 0 51 5 80 34 49 49 47
90 -6 151 -22 25 -40 52 -40 60 0 24 59 65 94 65 55 0 133 -29 165 -60 120
-121 115 -574 -8 -657 -40 -27 -107 -31 -149 -9 -44 23 -89 77 -125 150 l-34
68 -65 -133 c-48 -98 -79 -147 -114 -183 l-49 -49 -3 461 -2 462 -43 0 -44 0
1 -975 1 -975 42 0 43 0 2 478 3 477 46 -48 c59 -62 113 -153 140 -237 12 -36
25 -69 29 -73 4 -5 20 21 35 58 37 86 85 130 152 140 145 20 214 -65 229 -279
14 -201 -47 -380 -147 -432 -37 -19 -128 -18 -157 2 -31 21 -28 51 13 114 40
63 43 87 14 124 -45 57 -133 74 -183 35 -62 -49 -76 -147 -30 -214 35 -52 59
-71 129 -105 156 -75 320 -51 446 67 99 93 149 207 149 342 0 250 -166 405
-457 428 -118 9 -138 26 -138 117 0 55 4 69 23 88 21 22 30 23 160 23 121 0
143 3 185 22 170 79 254 248 226 458 -14 106 -47 171 -117 237 -66 60 -140
100 -227 123 -72 18 -113 18 -184 -1z"/>
<path d="M350 1005 l0 -975 110 0 110 0 0 975 0 975 -110 0 -110 0 0 -975z"/>
</g>
</svg>
