<?xml version="1.0" standalone="no"?>
<!DOCTYPE svg PUBLIC "-//W3C//DTD SVG 20010904//EN"
 "http://www.w3.org/TR/2001/REC-SVG-20010904/DTD/svg10.dtd">
<svg version="1.0" xmlns="http://www.w3.org/2000/svg"
 width="136.000000pt" height="371.000000pt" viewBox="0 0 136.000000 371.000000"
 preserveAspectRatio="xMidYMid meet">

<g transform="translate(0.000000,371.000000) scale(0.100000,-0.100000)"
fill="#000000" stroke="none">
<path d="M957 3696 c-112 -40 -289 -262 -343 -430 -37 -113 -45 -338 -19 -532
l18 -134 -169 -172 c-199 -203 -287 -316 -354 -453 -62 -125 -82 -210 -83
-345 -1 -135 20 -230 77 -345 98 -196 263 -333 462 -381 48 -12 110 -17 207
-17 96 1 137 -3 137 -11 0 -6 9 -74 20 -151 36 -249 23 -396 -41 -497 -58 -91
-159 -159 -256 -174 -42 -6 -136 17 -148 36 -3 5 22 23 55 40 153 77 199 199
120 323 -40 63 -78 82 -166 81 -59 0 -78 -4 -108 -24 -151 -103 -150 -334 1
-430 66 -42 115 -53 208 -48 189 11 313 102 367 269 26 80 28 252 4 413 -9 60
-16 128 -16 151 l0 42 60 22 c84 31 201 112 251 174 23 29 59 89 80 133 l39
82 0 130 c0 115 -3 139 -26 204 -86 242 -219 341 -476 355 -60 3 -108 8 -108
10 0 2 -11 79 -25 171 l-26 166 84 86 c142 145 223 253 289 385 68 136 73 160
72 365 0 157 -4 197 -22 265 -22 81 -99 246 -117 251 -6 2 -27 -3 -48 -10z
m100 -191 c33 -59 46 -147 34 -230 -25 -176 -113 -320 -331 -545 l-92 -95 -10
30 c-5 17 -11 75 -14 130 -5 88 -3 110 21 190 52 179 167 383 284 506 33 34
65 59 72 57 8 -3 24 -22 36 -43z m-387 -1209 c0 -3 9 -58 20 -123 29 -175 31
-167 -43 -202 -82 -39 -186 -141 -226 -222 -61 -122 -67 -270 -16 -374 44 -91
172 -205 230 -205 24 0 19 9 -35 66 -70 74 -90 121 -90 214 0 95 27 156 98
226 58 57 129 95 141 76 8 -13 108 -636 118 -735 5 -45 3 -61 -8 -68 -8 -5
-66 -9 -129 -9 -95 0 -127 5 -181 24 -229 81 -359 284 -359 562 0 57 5 127 11
156 29 138 126 283 328 491 108 111 141 140 141 123z m312 -546 c70 -26 142
-88 173 -150 13 -27 32 -87 41 -135 15 -75 16 -98 6 -159 -17 -98 -64 -189
-131 -256 -52 -51 -134 -100 -146 -88 -14 14 -109 593 -122 742 l-6 79 65 -6
c35 -3 89 -15 120 -27z"/>
</g>
</svg>
