<?xml version="1.0" standalone="no"?>
<!DOCTYPE svg PUBLIC "-//W3C//DTD SVG 20010904//EN"
 "http://www.w3.org/TR/2001/REC-SVG-20010904/DTD/svg10.dtd">
<svg version="1.0" xmlns="http://www.w3.org/2000/svg"
 width="1024.000000pt" height="1024.000000pt" viewBox="0 0 1024.000000 1024.000000"
 preserveAspectRatio="xMidYMid meet">

<g transform="translate(0.000000,1024.000000) scale(0.100000,-0.100000)"
fill="#000000" stroke="none">
<path d="M3270 9685 c-136 -31 -259 -103 -389 -229 -274 -266 -446 -638 -491
-1062 -7 -62 -11 -194 -9 -297 l4 -187 -907 0 c-553 0 -917 -4 -932 -10 -27
-10 -56 -56 -56 -89 0 -12 13 -35 29 -53 l29 -33 930 -3 929 -2 7 -63 c10 -90
71 -474 95 -597 12 -58 21 -112 21 -120 0 -9 -56 -62 -123 -118 l-124 -102
-867 -2 -868 -3 -29 -33 c-39 -43 -39 -84 0 -123 l29 -29 767 0 767 0 -112
-117 c-148 -155 -332 -369 -427 -496 -90 -122 -214 -308 -239 -360 l-18 -37
-369 0 -369 0 -29 -29 c-39 -40 -39 -82 0 -122 l29 -29 321 0 c177 0 321 -2
321 -5 0 -3 -18 -56 -39 -119 -77 -223 -107 -432 -98 -686 3 -91 9 -173 13
-183 6 -16 -12 -17 -256 -17 l-262 0 -29 -29 c-20 -20 -29 -39 -29 -61 0 -22
9 -41 29 -61 l29 -29 274 0 273 0 34 -111 c45 -144 131 -322 223 -456 74 -109
250 -301 352 -383 30 -25 55 -47 56 -50 0 -3 -273 -5 -606 -5 l-606 0 -29 -33
c-16 -18 -29 -41 -29 -53 0 -28 26 -75 47 -85 10 -5 360 -11 778 -14 l760 -5
110 -47 c130 -56 247 -90 405 -121 104 -20 145 -22 422 -22 l307 1 20 -111
c89 -480 116 -710 108 -925 -9 -239 -55 -388 -162 -523 -210 -265 -668 -330
-896 -128 l-43 38 73 7 c159 14 260 57 361 152 117 111 170 242 170 424 0 175
-51 308 -165 429 -111 117 -248 174 -415 174 -113 0 -197 -20 -289 -68 -188
-99 -327 -277 -381 -490 -24 -94 -27 -267 -6 -367 81 -381 456 -708 886 -773
229 -35 458 2 665 107 316 160 540 489 586 861 15 121 5 374 -21 552 -12 77
-43 262 -70 410 -27 149 -51 280 -52 293 -3 20 6 26 70 47 40 14 103 39 139
55 l66 30 2023 0 2024 0 2 -198 3 -199 119 36 118 36 -1 163 -2 162 201 0 200
0 0 -105 0 -105 25 6 c13 3 66 18 117 32 l93 27 3 73 3 72 395 0 c428 0 438 1
462 55 18 40 15 62 -17 97 l-29 33 -406 0 -406 0 0 188 c0 171 1 187 18 188
28 1 222 63 222 72 0 4 0 119 0 256 l0 249 -111 -34 c-61 -19 -115 -34 -120
-34 -5 0 -9 27 -9 60 l0 60 406 0 406 0 30 30 c26 27 30 36 25 68 -4 22 -17
46 -32 59 l-26 23 -405 0 -404 0 0 200 0 199 73 21 c39 12 95 28 122 37 l50
15 -3 254 c-1 140 -4 254 -7 254 -2 0 -54 -16 -115 -35 -61 -19 -114 -35 -116
-35 -2 0 -4 23 -4 50 l0 50 401 0 c255 0 407 4 420 10 29 16 51 67 44 101 -4
16 -18 38 -32 49 -25 19 -40 20 -429 20 l-404 0 0 225 c0 124 -2 225 -5 225
-3 0 -37 -9 -77 -19 -40 -11 -92 -25 -115 -31 l-43 -11 -2 -192 -3 -192 -197
-3 -198 -2 -1 132 c-1 73 -1 139 0 146 2 16 4 16 -124 -16 l-110 -28 -3 -117
-3 -117 -74 0 -75 0 0 105 c0 104 0 105 -22 100 -13 -4 -66 -19 -118 -34 l-95
-27 -5 365 c-3 201 -3 367 0 368 3 2 57 18 120 36 114 32 115 33 118 65 l3 32
909 0 c568 0 918 4 934 10 15 5 34 25 43 45 21 43 11 78 -30 109 -28 21 -29
21 -943 21 l-914 0 0 118 c0 137 11 129 -130 91 -52 -14 -98 -27 -103 -27 -4
-1 -8 157 -8 351 0 263 -3 352 -12 352 -20 0 -220 -59 -229 -68 -4 -4 -9 -165
-10 -356 l-3 -349 -185 -53 c-102 -29 -188 -54 -192 -54 -5 0 -8 165 -8 366
l0 366 -22 -6 c-13 -3 -67 -16 -120 -28 l-98 -23 0 -337 0 -338 -1585 -2
c-872 -2 -1585 -2 -1585 0 0 1 36 46 81 100 184 221 358 524 443 772 l44 125
2782 5 2782 5 29 33 c16 18 29 41 29 53 0 32 -26 74 -55 87 -20 9 -664 12
-2771 12 l-2746 0 6 28 c32 154 47 423 35 609 -29 472 -217 874 -489 1050
-134 86 -322 122 -470 88z m248 -824 c91 -46 152 -141 172 -267 25 -156 -32
-410 -140 -624 l-30 -60 -310 0 -310 0 5 83 c28 387 101 614 248 766 94 96
173 134 268 127 30 -2 74 -13 97 -25z m-130 -1150 c-9 -25 -178 -217 -260
-296 -100 -97 -186 -170 -192 -164 -4 4 -15 142 -31 392 l-5 77 246 0 c143 0
244 -4 242 -9z m3122 -1400 l0 -219 63 18 c34 10 86 25 115 34 l52 15 0 -320
0 -319 -1397 3 -1398 2 -100 37 c-153 57 -283 80 -470 85 l-160 3 -59 307 -58
307 63 55 c35 31 100 90 144 133 l80 78 1563 0 1562 0 0 -219z m860 -349 l0
-367 -137 -38 c-86 -23 -160 -37 -196 -37 l-57 0 2 351 3 352 180 52 c99 29
186 53 193 54 9 1 12 -79 12 -367z m-4566 -218 l42 -205 -88 -46 c-230 -118
-426 -317 -545 -549 -89 -174 -129 -320 -140 -506 l-6 -108 -205 0 -204 0 7
73 c49 514 386 1022 985 1485 58 45 107 77 108 71 2 -5 23 -102 46 -215z
m3706 -649 c0 -135 3 -245 8 -245 4 0 50 14 102 30 52 16 101 30 108 30 9 0
12 -65 12 -290 l0 -290 -1003 0 -1003 0 -22 130 c-52 319 -190 592 -416 828
l-50 52 1132 0 1132 0 0 -245z m1500 75 c0 -93 0 -173 1 -177 1 -8 -26 -17
-168 -60 l-58 -18 0 -245 c0 -135 1 -248 2 -252 2 -3 52 9 113 27 60 18 110
32 110 32 1 -1 2 -35 3 -75 l2 -72 -517 0 -518 0 0 328 0 327 178 49 c97 27
185 51 194 54 17 4 18 -18 20 -331 l3 -335 120 37 120 36 2 335 3 335 120 34
120 34 0 54 0 53 75 0 75 0 0 -170z m638 83 l-3 -86 -190 -54 c-104 -29 -193
-53 -197 -53 -5 0 -8 63 -8 140 l0 140 200 0 201 0 -3 -87z m-5058 -444 c151
-38 307 -136 409 -257 24 -29 65 -89 93 -135 l49 -82 -352 -3 c-237 -1 -355 1
-359 8 -4 6 -23 111 -44 233 -20 122 -40 233 -43 246 l-6 23 89 -7 c49 -4 123
-16 164 -26z m-595 -61 c7 -29 65 -395 65 -408 0 -6 -98 -10 -261 -10 l-260 0
6 23 c4 12 20 49 36 82 60 127 169 231 314 301 82 40 93 41 100 12z m5655
-253 l0 -165 -200 0 -200 0 0 108 0 107 193 57 c105 31 195 57 200 57 4 1 7
-73 7 -164z m-6509 -443 c43 -107 108 -215 180 -301 100 -120 273 -226 417
-256 58 -12 70 -12 89 1 43 27 31 53 -54 123 -130 106 -224 287 -248 479 l-7
52 289 -2 288 -3 36 -215 c20 -118 55 -332 78 -475 23 -143 44 -270 47 -283
l5 -23 -333 3 c-329 4 -334 4 -423 31 -124 38 -297 124 -392 196 -93 70 -213
193 -266 273 -81 123 -154 311 -172 446 l-7 52 217 -2 218 -3 38 -93z m2043
67 c11 -54 7 -184 -8 -261 -43 -224 -176 -423 -371 -553 -72 -48 -173 -100
-181 -93 -3 4 -92 504 -129 728 -14 85 -28 167 -31 183 l-6 27 360 0 360 0 6
-31z m3824 -161 l-3 -191 -25 -8 c-14 -4 -63 -19 -110 -33 l-85 -26 0 -249 c0
-137 3 -252 6 -256 4 -3 49 8 101 25 52 16 100 30 107 30 7 0 11 -19 11 -50
l0 -50 -1874 0 c-1031 0 -1883 -3 -1893 -7 -10 -4 32 42 93 102 164 164 273
338 338 540 30 94 56 220 56 268 0 19 3 49 6 66 l7 31 1633 0 1634 0 -2 -192z
m640 98 c2 -49 -1 -93 -5 -97 -8 -8 -368 -119 -385 -119 -10 0 -11 294 -1 304
4 3 93 5 197 4 l191 -3 3 -89z m2 -761 l0 -145 -190 0 c-104 0 -193 0 -197 0
-5 0 -8 39 -8 87 l0 87 190 57 c105 32 193 58 198 58 4 1 7 -64 7 -144z"/>
</g>
</svg>
