<?xml version="1.0" standalone="no"?>
<!DOCTYPE svg PUBLIC "-//W3C//DTD SVG 20010904//EN"
 "http://www.w3.org/TR/2001/REC-SVG-20010904/DTD/svg10.dtd">
<svg version="1.0" xmlns="http://www.w3.org/2000/svg"
 width="149.000000pt" height="577.000000pt" viewBox="0 0 149.000000 577.000000"
 preserveAspectRatio="xMidYMid meet">

<g transform="translate(0.000000,577.000000) scale(0.100000,-0.100000)"
fill="#000000" stroke="none">
<path d="M11 3768 c1 -1096 5 -2124 8 -2284 l6 -291 150 58 c83 32 382 148
665 258 283 110 523 203 533 207 16 6 17 -39 17 -855 l0 -861 52 0 51 0 -6
2271 c-3 1249 -8 2274 -11 2277 -8 7 -195 -63 -850 -319 -281 -110 -513 -199
-518 -199 -4 0 -8 389 -8 865 l0 865 -45 0 -45 0 1 -1992z m1389 -638 c0 -751
-1 -800 -17 -809 -10 -5 -223 -89 -473 -186 -250 -98 -528 -206 -617 -241 -89
-35 -169 -64 -178 -64 -13 0 -15 86 -15 799 0 630 3 800 13 804 6 3 219 87
472 187 549 218 786 309 803 310 9 0 12 -166 12 -800z"/>
</g>
</svg>
