<?xml version="1.0" standalone="no"?>
<!DOCTYPE svg PUBLIC "-//W3C//DTD SVG 20010904//EN"
 "http://www.w3.org/TR/2001/REC-SVG-20010904/DTD/svg10.dtd">
<svg version="1.0" xmlns="http://www.w3.org/2000/svg"
 width="214.000000pt" height="686.000000pt" viewBox="0 0 214.000000 686.000000"
 preserveAspectRatio="xMidYMid meet">

<g transform="translate(0.000000,686.000000) scale(0.100000,-0.100000)"
fill="#000000" stroke="none">
<path d="M1430 5965 l0 -885 -27 -11 c-25 -9 -618 -180 -675 -194 l-28 -7 0
663 c0 365 -3 742 -7 837 l-6 172 -94 0 -93 0 -2 -872 -3 -871 -230 -64 c-126
-34 -238 -63 -247 -63 -17 0 -18 -23 -18 -350 0 -192 2 -350 5 -350 2 0 111
29 241 65 130 36 241 65 246 65 4 0 8 -377 8 -839 l0 -839 -183 -51 c-100 -28
-212 -58 -250 -68 l-67 -18 0 -348 c0 -327 1 -348 18 -343 9 3 80 23 157 45
77 22 160 47 185 56 25 9 66 19 93 21 l47 5 0 -856 0 -855 93 0 94 0 6 886 c4
660 8 889 17 894 12 7 629 174 688 186 l32 7 0 -832 0 -831 100 0 100 0 1 298
c1 163 5 553 8 866 l6 569 242 66 243 66 0 343 c0 293 -2 342 -15 342 -12 0
-430 -115 -462 -127 -10 -4 -13 168 -13 843 l0 849 238 65 237 65 8 275 c5
151 6 307 2 346 l-6 70 -212 -56 c-117 -32 -224 -60 -239 -64 l-28 -6 0 702
c0 387 -3 774 -7 861 l-6 157 -99 0 -98 0 0 -885z m-1 -2440 l4 -834 -24 -10
c-51 -20 -680 -201 -700 -201 -5 0 -9 380 -9 845 l0 844 58 17 c197 59 621
173 642 173 l25 1 4 -835z"/>
</g>
</svg>
